<svg width="16" height="16" viewBox="0 0 16 16" fill="none" xmlns="http://www.w3.org/2000/svg">
<path d="M8 2.5C7.6853 2.49896 7.37479 2.57219 7.09372 2.71375C6.81265 2.85531 6.56895 3.0612 6.38244 3.31468C6.19593 3.56816 6.07186 3.86208 6.02034 4.17254C5.96881 4.483 5.99128 4.80124 6.08591 5.10138C6.18054 5.40152 6.34466 5.67509 6.56493 5.89986C6.78521 6.12462 7.05541 6.29424 7.35358 6.3949C7.65175 6.49557 7.96947 6.52446 8.28091 6.47921C8.59234 6.43396 8.88871 6.31586 9.1459 6.1345C9.28978 6.44376 9.53496 6.6946 9.84085 6.8455C10.1467 6.9964 10.495 7.03831 10.828 6.96429C11.1609 6.89027 11.4586 6.70476 11.6717 6.43847C11.8849 6.17218 12.0007 5.84109 12 5.5V4.5C12 3.70888 11.7654 2.93552 11.3259 2.27772C10.8864 1.61992 10.2616 1.10723 9.53074 0.804484C8.79983 0.501733 7.99556 0.42252 7.21964 0.576861C6.44372 0.731202 5.73098 1.11216 5.17157 1.67157C4.61216 2.23098 4.2312 2.94372 4.07686 3.71964C3.92252 4.49556 4.00173 5.29983 4.30448 6.03074C4.60723 6.76164 5.11992 7.38635 5.77772 7.82588C6.43552 8.26541 7.20888 8.5 8 8.5C8.13261 8.5 8.25979 8.44732 8.35356 8.35356C8.44732 8.25979 8.5 8.13261 8.5 8C8.5 7.86739 8.44732 7.74022 8.35356 7.64645C8.25979 7.55268 8.13261 7.5 8 7.5C7.40666 7.5 6.82664 7.32405 6.33329 6.99441C5.83994 6.66477 5.45543 6.19623 5.22836 5.64805C5.0013 5.09987 4.94189 4.49667 5.05765 3.91473C5.1734 3.33279 5.45912 2.79824 5.87868 2.37868C6.29824 1.95912 6.83279 1.6734 7.41473 1.55765C7.99667 1.44189 8.59987 1.5013 9.14805 1.72836C9.69623 1.95543 10.1648 2.33994 10.4944 2.83329C10.8241 3.32664 11 3.90666 11 4.5V5.5C11 5.63261 10.9473 5.75979 10.8536 5.85356C10.7598 5.94732 10.6326 6 10.5 6C10.3674 6 10.2402 5.94732 10.1464 5.85356C10.0527 5.75979 10 5.63261 10 5.5V4.5C9.99945 3.96974 9.78855 3.46135 9.4136 3.0864C9.03865 2.71145 8.53026 2.50056 8 2.5ZM8 5.5C7.80222 5.5 7.60888 5.44135 7.44443 5.33147C7.27998 5.22159 7.15181 5.06541 7.07612 4.88269C7.00043 4.69996 6.98063 4.49889 7.01922 4.30491C7.0578 4.11093 7.15304 3.93275 7.2929 3.7929C7.43275 3.65304 7.61093 3.5578 7.80491 3.51922C7.99889 3.48063 8.19996 3.50043 8.38269 3.57612C8.56541 3.65181 8.72159 3.77998 8.83147 3.94443C8.94135 4.10888 9 4.30222 9 4.5C8.9997 4.76512 8.89424 5.0193 8.70677 5.20677C8.5193 5.39424 8.26512 5.4997 8 5.5Z" fill="#2C3E50"/>
<path d="M15.454 6.79001C15.4312 6.73549 15.3969 6.68652 15.3535 6.64646L13.8535 5.14646C13.7592 5.05538 13.6329 5.00498 13.5018 5.00612C13.3707 5.00726 13.2453 5.05985 13.1526 5.15255C13.0599 5.24525 13.0073 5.37066 13.0062 5.50176C13.005 5.63286 13.0554 5.75916 13.1465 5.85346L14.208 6.91496L8 10.9058L1.792 6.91501L2.8535 5.85351C2.94458 5.75921 2.99498 5.63291 2.99384 5.50181C2.9927 5.37071 2.94011 5.2453 2.84741 5.1526C2.75471 5.0599 2.6293 5.00731 2.4982 5.00617C2.3671 5.00503 2.2408 5.05543 2.1465 5.14651C2.1465 5.14651 0.64785 6.64501 0.64 6.65596C0.558531 6.7532 0.509572 6.87352 0.5 7.00001V14C0.500437 14.3977 0.658612 14.779 0.939822 15.0602C1.22103 15.3414 1.60231 15.4996 2 15.5H14C14.3977 15.4996 14.779 15.3414 15.0602 15.0602C15.3414 14.779 15.4996 14.3977 15.5 14V7.00001C15.4989 6.92763 15.4833 6.85621 15.454 6.79001ZM10.9226 10.2155L14.5 7.91601V13.793L10.9226 10.2155ZM8.27025 11.9205L10.0618 10.769L13.7929 14.5H2.20705L5.9382 10.7689L7.73 11.9204C7.81047 11.9725 7.90428 12.0002 8.00012 12.0002C8.09597 12.0002 8.18978 11.9725 8.27025 11.9204V11.9205ZM1.5 13.793V7.91601L5.0774 10.2156L1.5 13.793Z" fill="#2C3E50"/>
</svg>
