<svg width="16" height="16" viewBox="0 0 16 16" fill="none" xmlns="http://www.w3.org/2000/svg">
<path fill-rule="evenodd" clip-rule="evenodd" d="M11.536 3.464C12.0004 3.92831 12.3689 4.47956 12.6202 5.08628C12.8716 5.69299 13.0009 6.34328 13.0009 7C13.0009 7.65672 12.8716 8.30701 12.6202 8.91372C12.3689 9.52044 12.0004 10.0717 11.536 10.536L8 14.07L4.464 10.535C3.99965 10.0706 3.6313 9.51938 3.38 8.91267C3.12869 8.30596 2.99934 7.65569 2.99934 6.999C2.99934 6.3423 3.12869 5.69204 3.38 5.08533C3.6313 4.47862 3.99965 3.92735 4.464 3.463C4.92836 2.99864 5.47963 2.6303 6.08633 2.37899C6.69304 2.12769 7.34331 1.99834 8 1.99834C8.6567 1.99834 9.30696 2.12769 9.91367 2.37899C10.5204 2.6303 11.0716 2.99864 11.536 3.463V3.464ZM12.596 11.596C13.5051 10.687 14.1242 9.52879 14.3751 8.2679C14.6259 7.00701 14.4972 5.70005 14.0053 4.5123C13.5133 3.32454 12.6802 2.30935 11.6113 1.5951C10.5423 0.880843 9.2856 0.499611 8 0.499611C6.7144 0.499611 5.45767 0.880843 4.38874 1.5951C3.31981 2.30935 2.48669 3.32454 1.99473 4.5123C1.50278 5.70005 1.37409 7.00701 1.62494 8.2679C1.87579 9.52879 2.49491 10.687 3.404 11.596L6.939 15.132C7.0783 15.2714 7.2437 15.382 7.42576 15.4574C7.60781 15.5328 7.80294 15.5717 8 15.5717C8.19707 15.5717 8.3922 15.5328 8.57425 15.4574C8.7563 15.382 8.9217 15.2714 9.061 15.132L12.596 11.596ZM8 9C8.53044 9 9.03914 8.78928 9.41422 8.41421C9.78929 8.03914 10 7.53043 10 7C10 6.46957 9.78929 5.96086 9.41422 5.58579C9.03914 5.21071 8.53044 5 8 5C7.46957 5 6.96086 5.21071 6.58579 5.58579C6.21072 5.96086 6 6.46957 6 7C6 7.53043 6.21072 8.03914 6.58579 8.41421C6.96086 8.78928 7.46957 9 8 9Z" fill="#C9D1D9"/>
</svg>
