<svg width="16" height="16" viewBox="0 0 16 16" fill="none" xmlns="http://www.w3.org/2000/svg">
<path fill-rule="evenodd" clip-rule="evenodd" d="M7.775 3.275C7.64252 3.41717 7.5704 3.60522 7.57383 3.79952C7.57726 3.99382 7.65597 4.1792 7.79338 4.31662C7.93079 4.45403 8.11618 4.53274 8.31048 4.53617C8.50478 4.5396 8.69283 4.46748 8.835 4.335L10.085 3.085C10.2708 2.89918 10.4914 2.75177 10.7342 2.65121C10.977 2.55064 11.2372 2.49888 11.5 2.49888C11.7628 2.49888 12.023 2.55064 12.2658 2.65121C12.5086 2.75177 12.7292 2.89918 12.915 3.085C13.1008 3.27082 13.2482 3.49142 13.3488 3.7342C13.4494 3.97699 13.5011 4.23721 13.5011 4.5C13.5011 4.76279 13.4494 5.023 13.3488 5.26579C13.2482 5.50857 13.1008 5.72917 12.915 5.915L10.415 8.415C10.2293 8.60095 10.0087 8.74847 9.76588 8.84911C9.52309 8.94976 9.26283 9.00157 9 9.00157C8.73717 9.00157 8.47692 8.94976 8.23412 8.84911C7.99133 8.74847 7.77075 8.60095 7.585 8.415C7.44283 8.28252 7.25478 8.21039 7.06048 8.21382C6.86618 8.21725 6.68079 8.29596 6.54338 8.43337C6.40597 8.57079 6.32726 8.75617 6.32383 8.95047C6.3204 9.14477 6.39252 9.33282 6.525 9.475C6.85001 9.80004 7.23587 10.0579 7.66053 10.2338C8.08519 10.4097 8.54035 10.5002 9 10.5002C9.45966 10.5002 9.91481 10.4097 10.3395 10.2338C10.7641 10.0579 11.15 9.80004 11.475 9.475L13.975 6.975C14.6314 6.31858 15.0002 5.4283 15.0002 4.5C15.0002 3.57169 14.6314 2.68141 13.975 2.025C13.3186 1.36858 12.4283 0.999817 11.5 0.999817C10.5717 0.999817 9.68141 1.36858 9.025 2.025L7.775 3.275ZM3.085 12.915C2.89905 12.7292 2.75153 12.5087 2.65088 12.2659C2.55024 12.0231 2.49843 11.7628 2.49843 11.5C2.49843 11.2372 2.55024 10.9769 2.65088 10.7341C2.75153 10.4913 2.89905 10.2707 3.085 10.085L5.585 7.585C5.77075 7.39904 5.99133 7.25152 6.23412 7.15088C6.47692 7.05023 6.73717 6.99842 7 6.99842C7.26283 6.99842 7.52309 7.05023 7.76588 7.15088C8.00868 7.25152 8.22926 7.39904 8.415 7.585C8.55718 7.71748 8.74522 7.7896 8.93953 7.78617C9.13383 7.78274 9.31921 7.70403 9.45662 7.56662C9.59404 7.4292 9.67275 7.24382 9.67618 7.04952C9.67961 6.85522 9.60748 6.66717 9.475 6.525C9.14999 6.19995 8.76414 5.94211 8.33948 5.7662C7.91481 5.59029 7.45966 5.49974 7 5.49974C6.54035 5.49974 6.08519 5.59029 5.66053 5.7662C5.23587 5.94211 4.85001 6.19995 4.525 6.525L2.025 9.02499C1.36859 9.68141 0.999825 10.5717 0.999825 11.5C0.999825 12.4283 1.36859 13.3186 2.025 13.975C2.68141 14.6314 3.5717 15.0002 4.5 15.0002C5.42831 15.0002 6.31859 14.6314 6.975 13.975L8.225 12.725C8.35748 12.5828 8.42961 12.3948 8.42618 12.2005C8.42275 12.0062 8.34404 11.8208 8.20662 11.6834C8.06921 11.546 7.88383 11.4672 7.68953 11.4638C7.49522 11.4604 7.30718 11.5325 7.165 11.665L5.915 12.915C5.72926 13.1009 5.50868 13.2485 5.26588 13.3491C5.02309 13.4498 4.76283 13.5016 4.5 13.5016C4.23717 13.5016 3.97692 13.4498 3.73412 13.3491C3.49133 13.2485 3.27075 13.1009 3.085 12.915Z" fill="#C9D1D9"/>
</svg>
