<?xml version="1.0" standalone="no"?>
<!DOCTYPE svg PUBLIC "-//W3C//DTD SVG 20010904//EN"
 "http://www.w3.org/TR/2001/REC-SVG-20010904/DTD/svg10.dtd">
<svg version="1.0" xmlns="http://www.w3.org/2000/svg"
 width="512.000000pt" height="512.000000pt" viewBox="0 0 512.000000 512.000000"
 preserveAspectRatio="xMidYMid meet">
<metadata>
Created by potrace 1.14, written by Peter Selinger 2001-2017
</metadata>
<g transform="translate(0.000000,512.000000) scale(0.100000,-0.100000)"
fill="#000000" stroke="none">
<path d="M1500 5042 c-74 -9 -148 -62 -181 -130 -22 -45 -24 -58 -26 -302 -1
-140 -2 -259 -2 -263 -1 -5 -31 21 -68 57 -128 123 -206 167 -453 251 -483
166 -574 195 -607 195 -79 0 -151 -64 -160 -143 -4 -36 8 -83 65 -253 181
-538 205 -600 275 -704 16 -25 145 -161 286 -302 140 -142 249 -258 241 -259
-8 0 -146 -1 -307 -1 -330 -1 -353 -4 -427 -69 -24 -22 -55 -61 -68 -87 -23
-47 -23 -48 -22 -447 0 -355 2 -407 18 -460 27 -88 68 -173 112 -230 l38 -50
2 -720 c0 -667 2 -724 19 -775 47 -143 155 -239 299 -265 98 -17 4008 -13
4061 4 145 49 245 154 274 289 8 37 11 271 11 762 0 435 4 711 9 715 34 20
111 164 138 255 25 85 26 112 27 521 l0 347 -30 58 c-33 66 -100 124 -164 140
-24 7 -189 12 -422 13 -210 1 -383 3 -384 4 -2 1 14 29 36 63 53 84 72 146 72
230 l-1 72 42 -10 c117 -27 293 -3 411 57 216 109 358 334 445 705 19 83 23
102 36 205 4 28 9 61 11 75 2 14 7 95 10 180 5 151 4 156 -18 190 -46 67 -97
73 -258 30 -25 -7 -56 -14 -68 -16 -13 -3 -128 -31 -255 -63 -363 -91 -524
-161 -645 -278 -36 -35 -65 -63 -67 -63 -1 0 -2 65 -3 144 0 121 -3 151 -20
188 -26 57 -65 96 -121 121 -46 21 -55 21 -1091 22 -575 0 -1056 -1 -1070 -3z"/>
</g>
</svg>
